#!OML:ASF I:\Random Stuff\random\construction\7_22_03\Session 2\subj1.ASF
:FULLY-SPECIFIED
:DEGREES
370
root 5.49279 17.633 -7.62873 7.41943 -54.704 -2.07098
lowerback -0.166218 -0.365929 -0.183043
upperback -1.34992 -0.486345 0.713147
thorax -1.28074 -0.238753 0.837259
lowerneck -14.0949 -2.25113 -5.06329
upperneck 15.7521 -4.27682 11.7428
head 7.53922 -1.33181 4.25458
rclavicle -8.1207e-014 -6.85807e-015
rhumerus -29.0419 33.7981 -95.8548
rradius 101.037
rwrist -3.26434
rhand -33.9038 38.5934
rfingers 7.12502
rthumb -7.08673 8.73204
lclavicle -8.1207e-014 -6.85807e-015
lhumerus -11.1585 -51.6611 89.1526
lradius 111.009
lwrist -16.964
lhand -31.7397 72.6972
lfingers 7.12502
lthumb -4.99744 257.382
rfemur 0.0637648 16.8979 24.4466
rtibia 6.41976
rfoot -16.1797 -41.6632
rtoes 22.7404
lfemur -14.3534 -9.06958 -13.4558
ltibia 23.4829
lfoot -13.0182 17.9669
ltoes -28.7218
371
root 5.5149 17.6344 -7.61125 7.59861 -54.5905 -2.15253
lowerback -0.140356 -0.293859 -0.13997
upperback -1.35534 -0.390639 0.621897
thorax -1.3032 -0.191791 0.718962
lowerneck -13.9931 -2.31673 -5.09209
upperneck 15.7784 -4.38379 11.8239
head 7.54219 -1.38069 4.27554
rclavicle 7.25284e-014 3.18055e-015
rhumerus -29.1916 33.9478 -96.2423
rradius 101.041
rwrist -3.45412
rhand -34.6036 38.5381
rfingers 7.12502
rthumb -7.76214 8.70055
lclavicle 7.25284e-014 3.18055e-015
lhumerus -11.2519 -51.5077 89.4815
lradius 111.022
lwrist -18.0366
lhand -31.4139 73.4966
lfingers 7.12502
lthumb -4.68278 256.575
rfemur 0.0557126 16.7582 24.3604
rtibia 6.20907
rfoot -16.75 -41.424
rtoes 24.2548
lfemur -14.5224 -9.57421 -13.4507
ltibia 23.4823
lfoot -13.063 18.3624
ltoes -28.4259
372
root 5.53308 17.6371 -7.59575 7.75301 -54.4862 -2.23122
lowerback -0.141292 -0.245264 -0.22332
upperback -1.3368 -0.32617 0.630793
thorax -1.28404 -0.158587 0.774079
lowerneck -13.8622 -2.31812 -5.19228
upperneck 15.7338 -4.35714 11.8044
head 7.50278 -1.38051 4.28817
rclavicle 3.14701e-014 -9.44227e-016
rhumerus -29.29 34.2115 -96.5025
rradius 101.044
rwrist -3.57043
rhand -35.2962 38.4915
rfingers 7.12502
rthumb -8.43063 8.67978
lclavicle 3.14701e-014 -9.44227e-016
lhumerus -11.3628 -51.2267 89.8259
lradius 110.958
lwrist -19.472
lhand -31.3326 73.4738
lfingers 7.12502
lthumb -4.60432 256.596
rfemur 0.0512696 16.6259 24.3039
rtibia 6.06218
rfoot -17.2354 -41.1813
rtoes 25.6449
lfemur -14.6461 -10.0205 -13.4349
ltibia 23.4518
lfoot -13.1294 18.6772
ltoes -27.4732
373
root 5.55016 17.6436 -7.57788 7.83072 -54.3827 -2.22598
lowerback -0.1815 -0.216135 -0.309626
upperback -1.29695 -0.287782 0.627027
thorax -1.22086 -0.138644 0.817911
lowerneck -14.1411 -2.3461 -5.18799
upperneck 16.2157 -4.37535 11.4918
head 7.70333 -1.39629 4.18935
rclavicle 5.56768e-014 5.46658e-015
rhumerus -29.3597 34.5404 -96.7644
rradius 100.991
rwrist -3.38895
rhand -36.0323 38.5046
rfingers 7.12502
rthumb -9.14099 8.72267
lclavicle 5.56768e-014 5.46658e-015
lhumerus -11.4373 -50.9244 90.0407
lradius 110.936
lwrist -21.3859
lhand -31.0474 73.4486
lfingers 7.12502
lthumb -4.32893 256.616
rfemur 0.00564791 16.4869 24.2125
rtibia 6.01586
rfoot -17.4882 -41.0584
rtoes 26.1285
lfemur -14.7338 -10.6321 -13.4738
ltibia 23.3939
lfoot -13.2038 19.1483
ltoes -26.6641
374
root 5.56834 17.6471 -7.5588 7.80672 -54.276 -2.11464
lowerback -0.193863 -0.153468 -0.347217
upperback -1.26366 -0.205037 0.532954
thorax -1.18137 -0.0974601 0.741809
lowerneck -13.996 -2.34264 -5.2316
upperneck 16.0626 -4.34298 11.4695
head 7.62433 -1.39273 4.18993
rclavicle 6.02162e-014 6.4605e-016
rhumerus -29.5126 34.7865 -97.1208
rradius 100.855
rwrist -2.92553
rhand -37.1142 38.2696
rfingers 7.12502
rthumb -10.1849 8.53612
lclavicle 6.02162e-014 6.4605e-016
lhumerus -11.3876 -50.7232 90.1572
lradius 110.886
lwrist -23.7738
lhand -31.1886 73.8437
lfingers 7.12502
lthumb -4.46526 256.223
rfemur -0.057809 16.3343 24.0472
rtibia 6.03874
rfoot -17.9797 -40.8869
rtoes 26.7956
lfemur -14.7823 -11.1788 -13.6
ltibia 23.3018
lfoot -13.2549 19.5734
ltoes -26.5606
375
root 5.58467 17.6468 -7.54133 7.81674 -54.1659 -2.01398
lowerback -0.225765 -0.102281 -0.426375
upperback -1.24913 -0.137482 0.476961
thorax -1.1496 -0.0632414 0.728191
lowerneck -14.0611 -2.3267 -5.20095
upperneck 16.282 -4.31867 11.3255
head 7.70106 -1.38519 4.14304
rclavicle -3.69149e-014 2.23633e-015
rhumerus -29.7191 35.0767 -97.4454
rradius 100.667
rwrist -2.4436
rhand -38.3768 37.8046
rfingers 7.12502
rthumb -11.4026 8.13467
lclavicle -3.69149e-014 2.23633e-015
lhumerus -11.2523 -50.3939 90.3118
lradius 110.793
lwrist -26.2344
lhand -32.053 74.8412
lfingers 7.12502
lthumb -5.29986 255.245
rfemur -0.154766 16.1805 23.8843
rtibia 6.08042
rfoot -18.5948 -40.6538
rtoes 27.8545
lfemur -14.8501 -11.5814 -13.7075
ltibia 23.1993
lfoot -13.2857 19.8242
ltoes -26.4734
376
root 5.59961 17.6495 -7.52596 7.85285 -54.0536 -1.91425
lowerback -0.274048 -0.0681861 -0.519062
upperback -1.25174 -0.092631 0.433791
thorax -1.12585 -0.0401699 0.735525
lowerneck -14.2519 -2.37278 -5.16758
upperneck 16.7 -4.39529 11.1678
head 7.8749 -1.41953 4.0834
rclavicle 3.13831e-014 8.94531e-016
rhumerus -29.8705 35.2493 -97.6747
rradius 100.47
rwrist -2.23602
rhand -38.7151 37.4879
rfingers 7.12502
rthumb -11.7289 7.83622
lclavicle 3.13831e-014 8.94531e-016
lhumerus -11.3105 -49.9709 90.5221
lradius 110.793
lwrist -28.0558
lhand -32.7701 75.6916
lfingers 7.12502
lthumb -5.99227 254.413
rfemur -0.259335 16.026 23.7189
rtibia 6.05934
rfoot -18.9872 -40.4653
rtoes 28.6584
lfemur -14.9681 -12.1189 -13.7808
ltibia 23.1288
lfoot -13.3492 20.1847
ltoes -25.9158
377
root 5.61467 17.6529 -7.51169 7.90138 -53.9319 -1.87429
lowerback -0.26719 -0.0275414 -0.527508
upperback -1.25586 -0.0388904 0.382597
thorax -1.13483 -0.0134295 0.687477
lowerneck -14.3192 -2.25784 -5.06181
upperneck 16.9102 -4.22275 10.904
head 7.93175 -1.34804 3.99966
rclavicle -7.75881e-015 -9.93923e-017
rhumerus -30.0039 35.3116 -97.8941
rradius 100.249
rwrist -2.37662
rhand -38.4843 37.4421
rfingers 7.12502
rthumb -11.5064 7.77793
lclavicle -7.75881e-015 -9.93923e-017
lhumerus -11.558 -49.6179 90.7521
lradius 110.867
lwrist -28.8979
lhand -33.2016 76.216
lfingers 7.12502
lthumb -6.40883 253.901
rfemur -0.278142 15.8649 23.5976
rtibia 5.9306
rfoot -19.1786 -40.3067
rtoes 29.1905
lfemur -15.0735 -12.581 -13.8183
ltibia 23.0916
lfoot -13.4158 20.5034
ltoes -25.3821
